<?xml version="1.0" encoding="UTF-8" standalone="no"?>
<svg
   xmlns:dc="http://purl.org/dc/elements/1.1/"
   xmlns:cc="http://creativecommons.org/ns#"
   xmlns:rdf="http://www.w3.org/1999/02/22-rdf-syntax-ns#"
   xmlns:svg="http://www.w3.org/2000/svg"
   xmlns="http://www.w3.org/2000/svg"
   version="1.1"
   x="0px"
   y="0px"
   width="128"
   height="128"
   viewBox="0, 0, 128, 128"
   id="svg7344">
  <metadata
     id="metadata7371">
    <rdf:RDF>
      <cc:Work
         rdf:about="">
        <dc:format>image/svg+xml</dc:format>
        <dc:type
           rdf:resource="http://purl.org/dc/dcmitype/StillImage" />
        <dc:title></dc:title>
      </cc:Work>
    </rdf:RDF>
  </metadata>
  <g
     id="Background">
    <rect
       x="0"
       y="0"
       width="128"
       height="128"
       fill="#000000"
       fill-opacity="0"
       id="rect7347" />
  </g>
  <g
     id="g7349">
    <path
       d="M18.093,6 L109.907,6 C116.561,6 122,11.439 122,18.093 L122,109.905 C122,116.561 116.561,122 109.907,122 L18.093,122 C11.439,122 6,116.561 6,109.905 L6,18.093 C6,11.439 11.439,6 18.093,6"
       fill="#727272"
       id="path7351" />
    <path
       style="fill:#ebeded;fill-opacity:1"
       d="m 50.711864,42.276593 c 10.321,0 19.673,4.192 26.433,10.951 l -0.004,0.005 c 6.768,6.763 10.955,16.116 10.955,26.428 0,10.321 -4.182,19.666 -10.951,26.428997 l -0.004,0 0,0.005 c -6.764,6.768 -16.108,10.951 -26.429,10.951 -10.313,0 -19.665,-4.188 -26.429,-10.956 l -0.005,0.005 c -6.758,-6.758997 -10.952,-16.112997 -10.952,-26.433997 0,-10.315 4.194,-19.674 10.952,-26.433 6.759,-6.759 16.116,-10.951 26.434,-10.951 z m 23.977,13.408 c -6.129,-6.129 -14.61,-9.928 -23.977,-9.928 -9.362,0 -17.848,3.799 -23.977,9.928 -6.128,6.129 -9.929,14.614 -9.929,23.976 0,9.367 3.801,17.848 9.929,23.976997 l 0,0.005 c 6.124,6.129 14.61,9.923 23.977,9.923 9.37,0 17.851,-3.794 23.977,-9.923 l 0.004,-0.005 c 6.129,-6.123997 9.923,-14.604997 9.923,-23.976997 0,-9.367 -3.794,-17.852 -9.923,-23.976 z"
       id="path7353" />
    <path
       style="fill:#ebeded;fill-opacity:1"
       d="m 55.575864,47.098593 c 4.919,0 9.641,0.827 14.047,2.348 8.125,5.097 14.052,13.382 16.021,23.1 -6.33,-4.577 -14.107,-7.281 -22.515,-7.281 -10.614,0 -20.236,4.312 -27.191,11.267 -6.955,6.957 -11.266,16.578 -11.266,27.191997 l 0,0.274 c -5.962,-6.369997 -9.606,-14.924997 -9.606,-24.336997 0,-1.703 0.119,-3.381 0.353,-5.014 2.183,-5.658 5.526,-10.742 9.731,-14.948 7.783,-7.782 18.547,-12.601 30.426,-12.601 z m 18.939,9.545 c -5.591,-3.169 -12.056,-4.977 -18.939,-4.977 -10.614,0 -20.237,4.311 -27.192,11.266 -6.6,6.599 -10.819,15.601 -11.235,25.575 1.69,-8.503 5.882,-16.113 11.779,-22.008 7.782,-7.783 18.546,-12.6 30.424,-12.6 5.335,0 10.45,0.973 15.163,2.744 z m 3.776,6.8 c -5.589,-3.169 -12.056,-4.978 -18.939,-4.978 -10.614,0 -20.235,4.311 -27.192,11.268 -6.599,6.599 -10.819,15.6 -11.234,25.575 1.69,-8.505 5.882,-16.113 11.779,-22.01 7.781,-7.781 18.545,-12.599 30.424,-12.599 5.334,0 10.45,0.972 15.162,2.744"
       id="path7355" />
    <path
       style="fill:#ebeded;fill-opacity:1"
       d="m 73.229864,64.685593 0.307,0.302 c 6.056,6.056 10.317,13.919 11.911,22.707 -0.812,3.539 -2.161,6.873 -3.941,9.919 0.04,-0.73 0.063,-1.461 0.063,-2.201 0,-10.614 -4.31,-20.237 -11.267,-27.192 -1.548,-1.548 -3.229,-2.963 -5.019,-4.229 z m -12.782,-1.118 c 2.26,1.534 4.366,3.274 6.29,5.198 7.781,7.781 12.599,18.545 12.599,30.424 l -0.036,1.766997 c -1.54,2.064 -3.298,3.96 -5.242,5.645 0.465,-2.398 0.712,-4.878 0.712,-7.411997 0,-10.614 -4.312,-20.236 -11.267,-27.191 -2.924,-2.924 -6.317,-5.371 -10.052,-7.239 l 3.489,-1.498 z m -9.325,2.188 c 3.224,1.877 6.193,4.165 8.814,6.786 7.782,7.782 12.601,18.545 12.601,30.423997 0,1.727 -0.097,3.43 -0.298,5.106 -1.626,1.229 -3.361,2.33 -5.188,3.275 0.602,-2.695 0.918,-5.503 0.918,-8.381 0,-10.611997 -4.311,-20.234997 -11.266,-27.189997 -3.166,-3.166 -6.883,-5.783 -10.998,-7.697 z"
       id="path7357" />
    <path
       style="fill:#ebeded;fill-opacity:1"
       d="m 32.754864,53.643593 c 3.32,-0.822 6.786,-1.255 10.357,-1.255 1.384,0 2.746,0.062 4.097,0.191 -7.261,1.611 -13.75,5.278 -18.825,10.353 -0.538,0.538 -1.059,1.096 -1.571,1.671 -2.27,0.16 -4.486,0.508 -6.627,1.042 1.476,-2.133 3.137,-4.119 4.964,-5.946 2.293,-2.293 4.842,-4.326 7.605,-6.056 z m 22.418,0.457 c 3.915,1.141 7.6,2.821 10.965,4.959 -2.205,-0.393 -4.47,-0.594 -6.786,-0.594 -1.562,0 -3.106,0.092 -4.617,0.275 -3.174,-1.01 -6.535,-1.608 -10.007,-1.754 2.539,0.507 5.011,1.232 7.368,2.165 -2.731,0.52 -5.362,1.332 -7.856,2.402 -2.051,-0.43 -4.155,-0.699 -6.311,-0.791 1.736,0.343 3.429,0.796 5.084,1.339 -1.96,0.918 -3.824,2.004 -5.581,3.224 -2.079,-0.438 -4.225,-0.703 -6.408,-0.79 6.585,-5.759 14.943,-9.545 24.149,-10.435 z m 13.912,7.01 c 1.571,1.192 3.06,2.485 4.452,3.877 0.771,0.771 1.516,1.575 2.229,2.407 -2.708,-0.946 -5.553,-1.589 -8.5,-1.905 -2.255,-1.822 -4.722,-3.388 -7.351,-4.672 1.058,-0.077 2.131,-0.118 3.214,-0.118 2.019,0 4.01,0.142 5.956,0.411 z m -6.298,4.16 c -2.416,0.023 -4.781,0.266 -7.069,0.712 -2.033,-1.192 -4.189,-2.205 -6.435,-3.009 2.333,-0.79 4.758,-1.388 7.252,-1.773 2.205,1.175 4.296,2.544 6.252,4.07 z m -10.106,1.434 c -1.924,0.545 -3.791,1.234 -5.581,2.056 -1.755,-0.904 -3.59,-1.677 -5.486,-2.307 1.79,-1.031 3.659,-1.94 5.599,-2.712 1.901,0.862 3.728,1.85 5.468,2.963"
       id="path7359" />
    <path
       style="fill:#ebeded;fill-opacity:1"
       d="m 38.832864,72.248593 c 1.466,-0.287 2.945,-0.498 4.434,-0.63 4.513,-0.401 9.088,-0.1 13.551,0.933 l 6.475,7.027 c -6.216,-2.885 -12.997,-3.995 -19.618,-3.402 -4.829,0.435 -9.578,1.772 -13.972,4 z m -14.701,24.685 1.603,-6.061 c 4.627,-2.191 9.581,-3.52 14.609,-3.973 9.943,-0.891 20.205,1.663 28.831,7.829 l 0.677,6.379997 -1.005,-0.869 c -8.148,-6.804997 -18.295,-9.662997 -28.092,-8.786997 -5.817,0.525 -11.522,2.365 -16.623,5.481 z m 2.128,-8.042 1.581,-5.952 c 4.438,-2.014 9.165,-3.251 13.965,-3.68 7.96,-0.713 16.125,0.78 23.493,4.571 l 2.676,6.97 c -7.704,-5.509 -16.875,-7.782 -25.762,-6.988 -5.563,0.503 -11.024,2.206 -15.953,5.079"
       id="path7361" />
    <path
       style="fill:#ebeded;fill-opacity:1"
       d="m 16.075864,88.114593 c 3.704,-1.041 7.613,-1.598 11.65,-1.598 11.879,0 22.643,4.817 30.424,12.6 3.559,3.557997 6.495,7.736997 8.638,12.361997 -1.357,0.685 -2.755,1.288 -4.202,1.8 -1.909,-4.087 -4.521,-7.782 -7.667,-10.928 -6.601,-6.598997 -15.602,-10.819997 -25.577,-11.235997 8.505,1.69 16.113,5.882 22.01,11.778997 3.288,3.288 6.046,7.106 8.137,11.321 -1.53,0.388 -3.106,0.677 -4.704,0.859 -1.785,-3.303 -4.038,-6.316 -6.667,-8.947 -6.599,-6.598997 -15.6,-10.817997 -25.575,-11.233997 8.504,1.688 16.111,5.881997 22.008,11.776997 2.571,2.572 4.822,5.472 6.677,8.628 l -0.516,0.008 c -1.75,0 -3.472,-0.132 -5.152,-0.374 -1.27,-1.8 -2.689,-3.475 -4.242,-5.028 -5.435,-5.435 -12.499,-9.253 -20.397,-10.663997 -2.206,-3.356 -3.868,-7.107 -4.845,-11.125"
       id="path7363" />
    <path
       style="fill:#ebeded;fill-opacity:1"
       d="m 12.563864,29.818593 c 4.531,10.417 12.514,9.645 19.802,6.475 3.517,-1.534 6.951,-3.63 9.815,-5.375 l 0.008,0 1.513,-0.918 0,-0.01 c 5.616,-3.383 12.517,-5.255 19.203,-4.543 3.622,0.383 7.203,1.533 10.49,3.599 3.266,2.054 6.243,5.028 8.669,9.051 5.256,8.723 8.019,22.556 5.831,43.157 l -3.453,-0.364 c 2.101,-19.757 -0.451,-32.865 -5.357,-41.003 -2.131,-3.54 -4.722,-6.138 -7.535,-7.909 -2.808,-1.764 -5.882,-2.745 -9.009,-3.079 -5.902,-0.625 -12.035,1.046 -17.049,4.07 l -0.005,-0.005 -1.503,0.909 0.005,0.005 c -2.96,1.802 -6.499,3.963 -10.234,5.593 -8.919,3.878 -18.702,4.76 -24.3699996,-8.266 z"
       id="path7365" />
    <g
       id="g4306"
       transform="matrix(0.121,0,0,0.121,-2.9903486,1.1470468)">
      <path
         id="path4308"
         d="m 931.5,40.096 -275.011,0 c 0,209.966 168.865,381.076 376.235,381.076 l 0,-278.776 C 1033.66,85.541 987.721,38.986 931.5,40.096 Z"
         style="fill:#6e6e6e" />
    </g>
    <g
       id="g4310"
       transform="matrix(0.121,0,0,0.121,-2.9903486,1.1470468)">
      <path
         id="path4312"
         d="m 937.046,40.443 -257.952,0 c 0,195.212 158.391,353.603 353.776,353.603 l 0,-258.052 c 0,-52.63 -43.091,-95.724 -95.824,-95.551 z"
         style="fill:#ececec" />
    </g>
    <g
       id="g4314"
       transform="matrix(0.121,0,0,0.121,-2.9903486,1.1470468)">
      <path
         id="path4316"
         d="m 871.288,106.146 c 0,-6.527 2.185,-11.9 6.553,-16.118 4.369,-4.218 10.319,-6.327 17.851,-6.327 7.431,0 13.354,2.109 17.775,6.327 4.418,4.218 6.628,9.591 6.628,16.118 0,6.628 -2.236,12.051 -6.703,16.269 -4.47,4.218 -10.371,6.327 -17.7,6.327 -7.332,0 -13.232,-2.109 -17.699,-6.327 -4.471,-4.218 -6.705,-9.641 -6.705,-16.269 z m 46.246,194.166 -43.684,0 0,-142.988 43.685,0 0,142.988 z"
         style="fill:#6e6e6e" />
    </g>
  </g>
  <defs
     id="defs7367" />
</svg>
