<?xml version="1.0" encoding="UTF-8" standalone="no"?>
<svg
   xmlns:dc="http://purl.org/dc/elements/1.1/"
   xmlns:cc="http://creativecommons.org/ns#"
   xmlns:rdf="http://www.w3.org/1999/02/22-rdf-syntax-ns#"
   xmlns:svg="http://www.w3.org/2000/svg"
   xmlns="http://www.w3.org/2000/svg"
   id="svg8"
   version="1.1"
   viewBox="0 0 285.75001 285.75001"
   height="1080"
   width="1080">
  <defs
     id="defs2">
    <marker
       orient="auto"
       refY="0"
       refX="0"
       id="Arrow1Mend"
       style="overflow:visible">
      <path
         id="path5322"
         d="M 0,0 5,-5 -12.5,0 5,5 Z"
         style="fill:#fa8f00;fill-opacity:1;fill-rule:evenodd;stroke:#fa8f00;stroke-width:1.00000003pt;stroke-opacity:1"
         transform="matrix(-0.4,0,0,-0.4,-4,0)" />
    </marker>
    <marker
       orient="auto"
       refY="0"
       refX="0"
       id="Arrow1Mend-4"
       style="overflow:visible">
      <path
         id="path5322-5"
         d="M 0,0 5,-5 -12.5,0 5,5 Z"
         style="fill:#fa8f00;fill-opacity:1;fill-rule:evenodd;stroke:#fa8f00;stroke-width:1.00000003pt;stroke-opacity:1"
         transform="matrix(-0.4,0,0,-0.4,-4,0)" />
    </marker>
  </defs>
  <metadata
     id="metadata5">
    <rdf:RDF>
      <cc:Work
         rdf:about="">
        <dc:format>image/svg+xml</dc:format>
        <dc:type
           rdf:resource="http://purl.org/dc/dcmitype/StillImage" />
        <dc:title></dc:title>
      </cc:Work>
    </rdf:RDF>
  </metadata>
  <rect
     y="-0.0035707499"
     x="0.0084436871"
     height="285.75"
     width="285.75"
     id="rect7624"
     style="fill:#c9ebfb;fill-opacity:1;stroke:none;stroke-width:18.2091732;stroke-linecap:round;stroke-miterlimit:4;stroke-dasharray:none;stroke-opacity:1;paint-order:markers stroke fill" />
  <g
     transform="matrix(1.4552084,0,0,1.4552084,353.40658,-315.79146)"
     id="g152" />
  <g
     transform="matrix(1.4552084,0,0,1.4552084,353.40658,-315.79146)"
     id="g154" />
  <g
     transform="matrix(1.4552084,0,0,1.4552084,353.40658,-315.79146)"
     id="g156" />
  <g
     transform="matrix(1.4552084,0,0,1.4552084,353.40658,-315.79146)"
     id="g158" />
  <g
     transform="matrix(1.4552084,0,0,1.4552084,353.40658,-315.79146)"
     id="g160" />
  <g
     transform="matrix(1.4552084,0,0,1.4552084,353.40658,-315.79146)"
     id="g162" />
  <g
     transform="matrix(1.4552084,0,0,1.4552084,353.40658,-315.79146)"
     id="g164" />
  <g
     transform="matrix(1.4552084,0,0,1.4552084,353.40658,-315.79146)"
     id="g166" />
  <g
     transform="matrix(1.4552084,0,0,1.4552084,353.40658,-315.79146)"
     id="g168" />
  <g
     transform="matrix(1.4552084,0,0,1.4552084,353.40658,-315.79146)"
     id="g170" />
  <g
     transform="matrix(1.4552084,0,0,1.4552084,353.40658,-315.79146)"
     id="g172" />
  <g
     transform="matrix(1.4552084,0,0,1.4552084,353.40658,-315.79146)"
     id="g174" />
  <g
     transform="matrix(1.4552084,0,0,1.4552084,353.40658,-315.79146)"
     id="g176" />
  <g
     transform="matrix(1.4552084,0,0,1.4552084,353.40658,-315.79146)"
     id="g178" />
  <g
     transform="matrix(1.4552084,0,0,1.4552084,353.40658,-315.79146)"
     id="g180" />
  <flowRoot
     transform="matrix(1.4552084,0,0,1.4552084,353.40658,-315.79146)"
     xml:space="preserve"
     id="flowRoot1041"
     style="font-style:normal;font-variant:normal;font-weight:500;font-stretch:normal;font-size:40px;line-height:1.25;font-family:Roboto;-inkscape-font-specification:'Roboto Medium';letter-spacing:0px;word-spacing:0px;fill:#000000;fill-opacity:1;stroke:none"><flowRegion
       id="flowRegion1043"><rect
         id="rect1045"
         width="3.9448078"
         height="40.43428"
         x="1147.9391"
         y="550.21259" /></flowRegion><flowPara
       id="flowPara1047" /></flowRoot>  <g
     id="g4220"
     transform="matrix(2.1166666,0,0,2.1166666,337.33047,15.256141)" />
  <g
     id="g4222"
     transform="matrix(2.1166666,0,0,2.1166666,337.33047,15.256141)" />
  <g
     id="g4224"
     transform="matrix(2.1166666,0,0,2.1166666,337.33047,15.256141)" />
  <g
     id="g4226"
     transform="matrix(2.1166666,0,0,2.1166666,337.33047,15.256141)" />
  <g
     id="g4228"
     transform="matrix(2.1166666,0,0,2.1166666,337.33047,15.256141)" />
  <g
     id="g4230"
     transform="matrix(2.1166666,0,0,2.1166666,337.33047,15.256141)" />
  <g
     id="g4232"
     transform="matrix(2.1166666,0,0,2.1166666,337.33047,15.256141)" />
  <g
     id="g4234"
     transform="matrix(2.1166666,0,0,2.1166666,337.33047,15.256141)" />
  <g
     id="g4236"
     transform="matrix(2.1166666,0,0,2.1166666,337.33047,15.256141)" />
  <g
     id="g4238"
     transform="matrix(2.1166666,0,0,2.1166666,337.33047,15.256141)" />
  <g
     id="g4240"
     transform="matrix(2.1166666,0,0,2.1166666,337.33047,15.256141)" />
  <g
     id="g4242"
     transform="matrix(2.1166666,0,0,2.1166666,337.33047,15.256141)" />
  <g
     id="g4244"
     transform="matrix(2.1166666,0,0,2.1166666,337.33047,15.256141)" />
  <g
     id="g4246"
     transform="matrix(2.1166666,0,0,2.1166666,337.33047,15.256141)" />
  <g
     id="g4248"
     transform="matrix(2.1166666,0,0,2.1166666,337.33047,15.256141)" />
  <g
     transform="matrix(3.7041666,0,0,3.7041666,306.29059,98.348938)"
     id="g4510" />
  <g
     transform="matrix(3.7041666,0,0,3.7041666,306.29059,98.348938)"
     id="g4512" />
  <g
     transform="matrix(3.7041666,0,0,3.7041666,306.29059,98.348938)"
     id="g4514" />
  <g
     transform="matrix(3.7041666,0,0,3.7041666,306.29059,98.348938)"
     id="g4516" />
  <g
     transform="matrix(3.7041666,0,0,3.7041666,306.29059,98.348938)"
     id="g4518" />
  <g
     transform="matrix(3.7041666,0,0,3.7041666,306.29059,98.348938)"
     id="g4520" />
  <g
     transform="matrix(3.7041666,0,0,3.7041666,306.29059,98.348938)"
     id="g4522" />
  <g
     transform="matrix(3.7041666,0,0,3.7041666,306.29059,98.348938)"
     id="g4524" />
  <g
     transform="matrix(3.7041666,0,0,3.7041666,306.29059,98.348938)"
     id="g4526" />
  <g
     transform="matrix(3.7041666,0,0,3.7041666,306.29059,98.348938)"
     id="g4528" />
  <g
     transform="matrix(3.7041666,0,0,3.7041666,306.29059,98.348938)"
     id="g4530" />
  <g
     transform="matrix(3.7041666,0,0,3.7041666,306.29059,98.348938)"
     id="g4532" />
  <g
     transform="matrix(3.7041666,0,0,3.7041666,306.29059,98.348938)"
     id="g4534" />
  <g
     transform="matrix(3.7041666,0,0,3.7041666,306.29059,98.348938)"
     id="g4536" />
  <g
     transform="matrix(3.7041666,0,0,3.7041666,306.29059,98.348938)"
     id="g4538" />
  <g
     id="g5408"
     transform="matrix(3.96875,0,0,3.96875,257.48733,88.070343)" />
  <g
     id="g5410"
     transform="matrix(3.96875,0,0,3.96875,257.48733,88.070343)" />
  <g
     id="g5412"
     transform="matrix(3.96875,0,0,3.96875,257.48733,88.070343)" />
  <g
     id="g5414"
     transform="matrix(3.96875,0,0,3.96875,257.48733,88.070343)" />
  <g
     id="g5416"
     transform="matrix(3.96875,0,0,3.96875,257.48733,88.070343)" />
  <g
     id="g5418"
     transform="matrix(3.96875,0,0,3.96875,257.48733,88.070343)" />
  <g
     id="g5420"
     transform="matrix(3.96875,0,0,3.96875,257.48733,88.070343)" />
  <g
     id="g5422"
     transform="matrix(3.96875,0,0,3.96875,257.48733,88.070343)" />
  <g
     id="g5424"
     transform="matrix(3.96875,0,0,3.96875,257.48733,88.070343)" />
  <g
     id="g5426"
     transform="matrix(3.96875,0,0,3.96875,257.48733,88.070343)" />
  <g
     id="g5428"
     transform="matrix(3.96875,0,0,3.96875,257.48733,88.070343)" />
  <g
     id="g5430"
     transform="matrix(3.96875,0,0,3.96875,257.48733,88.070343)" />
  <g
     id="g5432"
     transform="matrix(3.96875,0,0,3.96875,257.48733,88.070343)" />
  <g
     id="g5434"
     transform="matrix(3.96875,0,0,3.96875,257.48733,88.070343)" />
  <g
     id="g5436"
     transform="matrix(3.96875,0,0,3.96875,257.48733,88.070343)" />
  <g
     id="g12289"
     transform="matrix(0.26458333,0,0,0.26458333,363.59753,95.404054)" />
  <g
     id="g12291"
     transform="matrix(0.26458333,0,0,0.26458333,363.59753,95.404054)" />
  <g
     id="g12293"
     transform="matrix(0.26458333,0,0,0.26458333,363.59753,95.404054)" />
  <g
     id="g12295"
     transform="matrix(0.26458333,0,0,0.26458333,363.59753,95.404054)" />
  <g
     id="g12297"
     transform="matrix(0.26458333,0,0,0.26458333,363.59753,95.404054)" />
  <g
     id="g12299"
     transform="matrix(0.26458333,0,0,0.26458333,363.59753,95.404054)" />
  <g
     id="g12301"
     transform="matrix(0.26458333,0,0,0.26458333,363.59753,95.404054)" />
  <g
     id="g12303"
     transform="matrix(0.26458333,0,0,0.26458333,363.59753,95.404054)" />
  <g
     id="g12305"
     transform="matrix(0.26458333,0,0,0.26458333,363.59753,95.404054)" />
  <g
     id="g12307"
     transform="matrix(0.26458333,0,0,0.26458333,363.59753,95.404054)" />
  <g
     id="g12309"
     transform="matrix(0.26458333,0,0,0.26458333,363.59753,95.404054)" />
  <g
     id="g12311"
     transform="matrix(0.26458333,0,0,0.26458333,363.59753,95.404054)" />
  <g
     id="g12313"
     transform="matrix(0.26458333,0,0,0.26458333,363.59753,95.404054)" />
  <g
     id="g12315"
     transform="matrix(0.26458333,0,0,0.26458333,363.59753,95.404054)" />
  <g
     id="g12317"
     transform="matrix(0.26458333,0,0,0.26458333,363.59753,95.404054)" />
  <g
     id="g4448"
     transform="matrix(0.26458333,0,0,0.26458333,310.14718,5.0929144)" />
  <g
     id="g4450"
     transform="matrix(0.26458333,0,0,0.26458333,310.14718,5.0929144)" />
  <g
     id="g4452"
     transform="matrix(0.26458333,0,0,0.26458333,310.14718,5.0929144)" />
  <g
     id="g4454"
     transform="matrix(0.26458333,0,0,0.26458333,310.14718,5.0929144)" />
  <g
     id="g4456"
     transform="matrix(0.26458333,0,0,0.26458333,310.14718,5.0929144)" />
  <g
     id="g4458"
     transform="matrix(0.26458333,0,0,0.26458333,310.14718,5.0929144)" />
  <g
     id="g4460"
     transform="matrix(0.26458333,0,0,0.26458333,310.14718,5.0929144)" />
  <g
     id="g4462"
     transform="matrix(0.26458333,0,0,0.26458333,310.14718,5.0929144)" />
  <g
     id="g4464"
     transform="matrix(0.26458333,0,0,0.26458333,310.14718,5.0929144)" />
  <g
     id="g4466"
     transform="matrix(0.26458333,0,0,0.26458333,310.14718,5.0929144)" />
  <g
     id="g4468"
     transform="matrix(0.26458333,0,0,0.26458333,310.14718,5.0929144)" />
  <g
     id="g4470"
     transform="matrix(0.26458333,0,0,0.26458333,310.14718,5.0929144)" />
  <g
     id="g4472"
     transform="matrix(0.26458333,0,0,0.26458333,310.14718,5.0929144)" />
  <g
     id="g4474"
     transform="matrix(0.26458333,0,0,0.26458333,310.14718,5.0929144)" />
  <g
     id="g4476"
     transform="matrix(0.26458333,0,0,0.26458333,310.14718,5.0929144)" />
  <path
     d="m 144.15472,73.793537 c 25.12308,0 47.88738,10.204088 64.34232,26.656543 l -0.009,0.009 c 16.47444,16.46229 26.66629,39.22907 26.66629,64.33017 0,25.12308 -10.17962,47.87036 -26.65654,64.33256 l -0.009,0 0,0.009 c -16.46469,16.47444 -39.20957,26.65663 -64.33257,26.65663 -25.10358,0 -47.867874,-10.19433 -64.332559,-26.66877 l -0.0092,0.009 C 63.364645,212.67618 53.155773,189.90701 53.155773,164.78402 c 0,-25.10846 10.208872,-47.88987 26.659024,-64.34241 C 96.267338,83.989161 119.04378,73.785073 144.1595,73.785073 Z m 58.36406,32.637373 C 187.59979,91.511817 166.95563,82.264437 144.15472,82.264437 c -22.78868,0 -43.44498,9.24738 -58.363971,24.166473 -14.916604,14.91899 -24.16886,35.5729 -24.16886,58.36157 0,22.80082 9.252256,43.44498 24.16886,58.36397 l 0,0.009 c 14.906851,14.919 35.563151,24.15424 58.363971,24.15424 22.80818,0 43.45234,-9.23524 58.36406,-24.15424 l 0.009,-0.009 c 14.919,-14.90685 24.15424,-35.551 24.15424,-58.36397 0,-22.80091 -9.23524,-43.45482 -24.15424,-58.36157 z"
     id="path7324"
     style="fill:#294270;fill-opacity:1" />
  <path
     d="m 155.99457,85.531081 c 11.97361,0 23.46773,2.013052 34.19272,5.715408 19.77761,12.407031 34.20486,32.574071 38.99779,56.229291 -15.40826,-11.1412 -34.33882,-17.72315 -54.80532,-17.72315 -25.83618,0 -49.25772,10.49609 -66.18738,27.42575 -16.929655,16.93444 -27.423359,40.35359 -27.423359,66.18986 l 0,0.667 C 66.256573,208.52956 57.386485,187.70527 57.386485,164.79487 c 0,-4.14542 0.2898,-8.22995 0.85928,-12.2049 C 63.559593,138.81748 71.696993,126.4421 81.932729,116.20406 100.87783,97.261357 127.07915,85.531081 155.99466,85.531081 Z m 46.10065,23.234139 c -13.60938,-7.71383 -29.34635,-12.114835 -46.10065,-12.114835 -25.83627,0 -49.2603,10.493705 -66.189861,27.423355 -16.0655,16.06302 -26.335276,37.97539 -27.34792,62.25373 4.11378,-20.6977 14.317776,-39.22171 28.672076,-53.57114 18.942705,-18.9451 45.144035,-30.67049 74.057055,-30.67049 12.98635,0 25.43708,2.36845 36.9093,6.67938 z m 9.19144,16.55236 c -13.60459,-7.71392 -29.34634,-12.11732 -46.10074,-12.11732 -25.83618,0 -49.25533,10.49371 -66.189862,27.42824 -16.063013,16.06301 -26.335181,37.973 -27.345341,62.25382 4.113688,-20.70267 14.317684,-39.22181 28.671983,-53.57601 18.94022,-18.94032 45.14164,-30.66811 74.05706,-30.66811 12.98386,0 25.43708,2.36605 36.9069,6.67938"
     id="path7326"
     style="fill:#294270;fill-opacity:1" />
  <path
     d="m 198.96731,128.34079 0.74704,0.73508 c 14.74134,14.74135 25.11333,33.88112 28.99334,55.27259 -1.97653,8.61451 -5.26019,16.73002 -9.59303,24.14448 0.0975,-1.77689 0.15364,-3.55626 0.15364,-5.35753 0,-25.83626 -10.49122,-49.26029 -27.42575,-66.18986 -3.76813,-3.76813 -7.85993,-7.21243 -12.21705,-10.29415 z m -31.11348,-2.72136 c 5.50123,3.73401 10.62756,7.96941 15.31091,12.65276 18.94023,18.94023 30.66802,45.14164 30.66802,74.05706 l -0.092,4.30118 c -3.74863,5.02412 -8.02783,9.6393 -12.75985,13.74085 1.13188,-5.83713 1.7331,-11.8738 1.7331,-18.04203 0,-25.83618 -10.4961,-49.25781 -27.42575,-66.18738 -7.11749,-7.11748 -15.37661,-13.07393 -24.46823,-17.62094 l 8.49279,-3.64642 z m -22.69861,5.32588 c 7.84769,4.569 15.07475,10.13831 21.45468,16.51833 18.9427,18.94261 30.67298,45.14155 30.67298,74.05705 0,4.20376 -0.23644,8.34919 -0.72496,12.42884 -3.95793,2.99156 -8.18128,5.67161 -12.62847,7.97189 1.46537,-6.56006 2.23459,-13.3952 2.23459,-20.40073 0,-25.83139 -10.49371,-49.25532 -27.42336,-66.18498 -7.70657,-7.70656 -16.75431,-14.07683 -26.7709,-18.7358 z"
     id="path7328"
     style="fill:#294270;fill-opacity:1" />
  <path
     d="m 100.44442,101.46272 c 8.08146,-2.000907 16.51823,-3.054859 25.21066,-3.054859 3.36886,0 6.68426,0.15088 9.9728,0.4646 -17.67448,3.921499 -33.46978,12.847609 -45.823171,25.201009 -1.30962,1.30952 -2.57784,2.66781 -3.824072,4.06741 -5.525612,0.38916 -10.919664,1.23657 -16.13128,2.53644 3.592876,-5.19211 7.636,-10.02635 12.08328,-14.47353 5.581456,-5.58155 11.786209,-10.53023 18.511783,-14.74135 z m 54.56915,1.11247 c 9.52973,2.77738 18.49964,6.86678 26.69067,12.07094 -5.36737,-0.95661 -10.88074,-1.44587 -16.51832,-1.44587 -3.80218,0 -7.56047,0.22356 -11.23854,0.66976 -7.72606,-2.45851 -15.90726,-3.91414 -24.35865,-4.26953 6.18028,1.23418 12.19754,2.99892 17.93494,5.27003 -6.64774,1.26574 -13.05204,3.24227 -19.12285,5.84688 -4.99247,-1.04678 -10.11392,-1.70154 -15.36197,-1.92547 4.22565,0.83536 8.3467,1.93761 12.37529,3.25938 -4.77103,2.23449 -9.30829,4.87802 -13.58509,7.84769 -5.06065,-1.0661 -10.28441,-1.7112 -15.598144,-1.92299 16.028974,-14.01831 36.373764,-23.23413 58.782664,-25.40046 z m 33.8641,17.06342 c 3.82407,2.90158 7.44859,6.0489 10.83695,9.43726 1.87671,1.8768 3.69022,3.83383 5.4257,5.85912 -6.5917,-2.30276 -13.51691,-3.86796 -20.69034,-4.63717 -5.48908,-4.43505 -11.4942,-8.24688 -17.89363,-11.3724 2.57536,-0.18768 5.18724,-0.28704 7.82341,-0.28704 4.91464,0 9.76101,0.34592 14.49791,1.00041 z m -15.33033,10.12616 c -5.88101,0.0552 -11.63782,0.64768 -17.20713,1.7331 -4.94868,-2.9015 -10.19673,-5.36728 -15.66392,-7.3244 5.67898,-1.92298 11.58179,-3.37861 17.65259,-4.31572 5.36738,2.8601 10.45718,6.19252 15.21846,9.90702 z m -24.5997,3.49057 c -4.68335,1.32664 -9.22796,3.0038 -13.58508,5.00471 -4.27193,-2.20055 -8.73872,-4.08213 -13.3539,-5.61568 4.35722,-2.50958 8.90671,-4.72227 13.62898,-6.60146 4.62732,2.09824 9.07451,4.50322 13.31,7.21243"
     id="path7330"
     style="fill:#294270;fill-opacity:1" />
  <path
     d="m 115.2393,146.75036 c 3.5685,-0.69828 7.16864,-1.21219 10.79308,-1.53345 10.98544,-0.97612 22.12167,-0.2438 32.9854,2.27102 l 15.76126,17.10491 c -15.13078,-7.02254 -31.63687,-9.72449 -47.75352,-8.28101 -11.75457,1.05883 -23.31446,4.31333 -34.010198,9.73664 z m -35.784683,60.08741 3.901996,-14.75349 c 11.262821,-5.33324 23.321727,-8.56823 35.560667,-9.67095 24.20299,-2.1688 49.18237,4.0481 70.17953,19.05716 l 1.64791,15.52997 -2.44638,-2.11527 c -19.83354,-16.5645 -44.53306,-23.52136 -68.38056,-21.38908 -14.15954,1.27798 -28.046475,5.75681 -40.463163,13.34166 z m 5.179876,-19.57558 3.848452,-14.48816 c 10.802823,-4.9024 22.309075,-7.91347 33.993075,-8.95767 19.37603,-1.73558 39.25098,1.89861 57.18592,11.12657 l 6.51387,16.96609 c -18.75282,-13.40983 -41.07662,-18.94261 -62.70904,-17.00988 -13.54129,1.22434 -26.834284,5.36977 -38.832277,12.36305"
     id="path7332"
     style="fill:#294270;fill-opacity:1" />
  <path
     d="m 59.845001,185.37086 c 9.016092,-2.53396 18.531284,-3.88976 28.357988,-3.88976 28.915511,0 55.116831,11.7254 74.057051,30.6705 8.66328,8.66079 15.80993,18.83313 21.02642,30.09117 -3.30317,1.66741 -6.70616,3.13518 -10.22838,4.3815 -4.64682,-9.94842 -11.00494,-18.9427 -18.66275,-26.6006 -16.06798,-16.06302 -37.97787,-26.33767 -62.258697,-27.35031 20.702577,4.11378 39.221717,14.31777 53.576017,28.67207 8.00354,8.00354 14.71696,17.2972 19.80677,27.55722 -3.72425,0.94448 -7.56047,1.64791 -11.45032,2.09089 -4.34498,-8.03997 -9.82919,-15.37412 -16.22862,-21.77843 -16.06301,-16.0631 -37.972902,-26.33279 -62.253727,-27.34543 20.700089,4.1089 39.216837,14.31777 53.571137,28.6672 6.25821,6.2606 11.73755,13.31976 16.25291,21.00194 l -1.25608,0.0184 c -4.25978,0 -8.4514,-0.32108 -12.5408,-0.9108 -3.09138,-4.38141 -6.54543,-8.45857 -10.32571,-12.23885 C 108.05852,225.17788 90.863537,215.88422 71.638481,212.44959 66.268717,204.28054 62.223109,195.15 59.845001,185.36948"
     id="path7334"
     style="fill:#294270;fill-opacity:1" />
  <path
     d="m 51.296177,43.468678 c 11.029236,25.356767 30.4612,23.477575 48.201371,15.761256 8.560972,-3.734004 16.919912,-8.836048 23.891302,-13.083688 l 0.0184,0 3.68294,-2.234496 0,-0.0276 c 13.67028,-8.234828 30.46847,-12.791588 46.74327,-11.0584 8.81654,0.932236 17.53336,3.73152 25.53442,8.760516 7.94999,4.99974 15.19646,12.239036 21.10176,22.031611 12.79398,21.233232 19.51964,54.905133 14.19367,105.051393 l -8.40521,-0.88596 c 5.11418,-48.0918 -1.09784,-79.998873 -13.03981,-99.808129 -5.18723,-8.616907 -11.4942,-14.940895 -18.34149,-19.251831 -6.83514,-4.293824 -14.31777,-6.681776 -21.92939,-7.49478 -14.36645,-1.521312 -29.29519,2.546192 -41.5001,9.907112 l -0.009,-0.0092 -3.65856,2.2126 0.009,0.0092 c -7.20517,4.386376 -15.81968,9.646663 -24.9113,13.614347 -21.710253,9.43966 -45.523717,11.586572 -59.3206,-20.120863 z"
     id="path7336"
     style="fill:#294270;fill-opacity:1" />
</svg>
